<mxfile host="" modified="2020-06-19T13:03:35.542Z" agent="5.0 (Windows NT 10.0; Win64; x64) AppleWebKit/537.36 (KHTML, like Gecko) Code/1.46.0 Chrome/78.0.3904.130 Electron/7.3.1 Safari/537.36" etag="aYknPVYUSVqW05WySOA-" version="13.1.3">
    <diagram id="6hGFLwfOUW9BJ-s0fimq" name="Page-1">
        <mxGraphModel dx="1974" dy="410" grid="1" gridSize="10" guides="1" tooltips="1" connect="1" arrows="1" fold="1" page="1" pageScale="1" pageWidth="827" pageHeight="1169" background="none" math="0" shadow="0">
            <root>
                <mxCell id="0"/>
                <mxCell id="1" parent="0"/>
                <mxCell id="2" value="Actors&lt;br&gt;ðŸ§‘&lt;br&gt;Anyone,system who uses the system&lt;br&gt;" style="whiteSpace=wrap;html=1;" vertex="1" parent="1">
                    <mxGeometry x="-200" y="280" width="170" height="100" as="geometry"/>
                </mxCell>
                <mxCell id="4" value="Use Cases&lt;br&gt;&lt;br&gt;What actors are tyring to do which can be a goal" style="whiteSpace=wrap;html=1;" vertex="1" parent="1">
                    <mxGeometry y="280" width="170" height="100" as="geometry"/>
                </mxCell>
                <mxCell id="6" value="Entities&lt;br&gt;What actors are tyring to do which can be a goal" style="whiteSpace=wrap;html=1;" vertex="1" parent="1">
                    <mxGeometry x="210" y="280" width="170" height="100" as="geometry"/>
                </mxCell>
            </root>
        </mxGraphModel>
    </diagram>
</mxfile>